<svg height="480pt" viewBox="0 0 480.16859 480" width="480pt" xmlns="http://www.w3.org/2000/svg"><path d="m423.765625 122.03125c-3.132813-32.832031-30.703125-57.90625-63.679687-57.921875-12.335938-.03125-24.40625 3.558594-34.722657 10.320313-9.925781-38.996094-45.039062-66.289063-85.277343-66.289063-40.242188 0-75.355469 27.292969-85.28125 66.289063-10.316407-6.761719-22.386719-10.351563-34.71875-10.320313-32.980469.015625-60.546876 25.089844-63.683594 57.921875-31.367188 7.859375-51.941406 37.886719-47.949219 69.976562 3.988281 32.089844 31.292969 56.164063 63.632813 56.101563h336c32.335937.0625 59.640624-24.011719 63.628906-56.101563 3.992187-32.089843-16.582032-62.117187-47.949219-69.976562zm0 0" fill="#9bc9ff"/><g fill="#1e81ce"><path d="m144.085938 480.109375h-144.0000005v-64h144.0000005zm-128-16h112v-32h-112zm0 0"/><path d="m312.085938 480.109375h-144v-64h144zm-128-16h112v-32h-112zm0 0"/><path d="m480.085938 480.109375h-144v-64h144zm-128-16h112v-32h-112zm0 0"/><path d="m24.085938 440.109375h16v16h-16zm0 0"/><path d="m360.085938 440.109375h16v16h-16zm0 0"/><path d="m192.085938 440.109375h16v16h-16zm0 0"/><path d="m416.085938 296.109375h-168v-40h160c35.3125.042969 65.445312-25.535156 71.140624-60.386719 5.695313-34.851562-14.726562-68.6875-48.214843-79.894531-3.792969-22.015625-17.601563-41.019531-37.367188-51.429687-19.769531-10.410157-43.25-11.046876-63.550781-1.722657-13.96875-37.625-49.867188-62.5898435-90-62.5898435-40.136719 0-76.035156 24.9648435-90 62.5898435-20.304688-9.332031-43.792969-8.699219-63.5625 1.714844-19.773438 10.410156-33.582031 29.417969-37.375 51.4375-33.488281 11.207031-53.910156 45.042969-48.214844 79.894531 5.699219 34.851563 35.828125 60.429688 71.144532 60.386719h160v40h-176v48h-56.0000005v64h144.0000005v-64h-72v-32h160v32h-64v64h144v-64h-64v-32h152v32h-64v64h144v-64h-64zm-400-112c-.015626-25.660156 17.410156-48.046875 42.285156-54.328125 3.28125-.832031 5.683594-3.636719 6-7.007812 2.605468-28.789063 26.808594-50.796876 55.714844-50.664063 10.769531-.027344 21.316406 3.105469 30.328124 9.007813 2.164063 1.421874 4.882813 1.710937 7.296876.769531 2.414062-.941407 4.222656-2.992188 4.851562-5.503907 9.035156-35.4375 40.953125-60.234374 77.523438-60.234374 36.570312 0 68.484374 24.796874 77.519531 60.234374.628906 2.511719 2.4375 4.5625 4.851562 5.503907 2.414063.941406 5.132813.652343 7.300781-.769531 9.011719-5.902344 19.554688-9.035157 30.328126-9.007813 28.90625-.132813 53.105468 21.875 55.710937 50.664063.316406 3.371093 2.71875 6.175781 6 7.007812 27.460937 6.867188 45.480469 33.144531 41.992187 61.234375-3.492187 28.09375-27.398437 49.160156-55.703124 49.09375h-336c-30.914063-.035156-55.964844-25.085937-56-56zm112 208h-112v-32h112zm168 0h-112v-32h112zm168 0h-112v-32h112zm0 0"/><path d="m24.085938 368.109375h16v16h-16zm0 0"/><path d="m192.085938 368.109375h16v16h-16zm0 0"/><path d="m360.085938 368.109375h16v16h-16zm0 0"/><path d="m232.085938 216.109375h16v16h-16zm0 0"/><path d="m264.085938 216.109375h16v16h-16zm0 0"/><path d="m296.085938 216.109375h16v16h-16zm0 0"/><path d="m328.085938 216.109375h16v16h-16zm0 0"/><path d="m360.085938 216.109375h16v16h-16zm0 0"/><path d="m392.085938 216.109375h16v16h-16zm0 0"/><path d="m200.085938 216.109375h16v16h-16zm0 0"/><path d="m168.085938 216.109375h16v16h-16zm0 0"/><path d="m136.085938 216.109375h16v16h-16zm0 0"/><path d="m104.085938 216.109375h16v16h-16zm0 0"/><path d="m72.085938 216.109375h16v16h-16zm0 0"/></g></svg>