<svg height="480pt" viewBox="0 0 480 480.00601" width="480pt" xmlns="http://www.w3.org/2000/svg"><g fill="#9bc9ff"><path d="m64.003906 184.007812h32v144h-32zm0 0"/><path d="m24.003906 392.007812h-16v32h192v-32zm0 0"/><path d="m200.003906 360.007812h-176v32h176zm0 0"/><path d="m112.003906 328.007812h-64v32h64zm0 0"/><path d="m112.003906 184.007812v-32h-64v32zm0 0"/><path d="m384.003906 184.007812h32v112h-32zm0 0"/><path d="m368.003906 184.007812h64v-32h-64zm0 0"/><path d="m168.003906 184.007812v144h32v-144zm0 0"/><path d="m152.003906 328.007812v32h48v-32zm0 0"/><path d="m168.003906 184.007812h48v-32h-64v32zm0 0"/><path d="m280.003906 184.007812h32v112h-32zm0 0"/><path d="m280.003906 184.007812h48v-32h-64v32zm0 0"/><path d="m8.003906 72.007812v80h464v-80l-232-64zm432 48h-400v-23.632812l200-55.199219 200 55.199219zm0 0"/><path d="m256.003906 80.007812c0 8.835938-7.164062 16-16 16-8.835937 0-16-7.164062-16-16 0-8.839843 7.164063-16 16-16 8.835938 0 16 7.160157 16 16zm0 0"/><path d="m312.003906 296.007812h-112v32h272v-32zm0 0"/><path d="m200.003906 360.007812v112h272v-112zm224 80c-8.835937 0-16-7.164062-16-16 0 8.835938-7.164062 16-16 16-8.835937 0-16-7.164062-16-16 0-8.839843 7.164063-16 16-16 8.835938 0 16 7.160157 16 16 0-8.839843 7.164063-16 16-16 8.835938 0 16 7.160157 16 16 0 8.835938-7.164062 16-16 16zm0 0"/><path d="m408.003906 424.007812c0 8.835938-7.164062 16-16 16-8.835937 0-16-7.164062-16-16 0-8.839843 7.164063-16 16-16 8.835938 0 16 7.160157 16 16zm0 0"/><path d="m440.003906 424.007812c0 8.835938-7.164062 16-16 16-8.835937 0-16-7.164062-16-16 0-8.839843 7.164063-16 16-16 8.835938 0 16 7.160157 16 16zm0 0"/></g><path d="m432.003906 192.007812c4.417969 0 8-3.582031 8-8v-24h32c4.417969 0 8-3.582031 8-8v-80c0-3.601562-2.402344-6.757812-5.871094-7.714843l-232-64c-1.394531-.3906252-2.867187-.3906252-4.257812 0l-232 64c-3.46875.957031-5.87109375 4.113281-5.87109375 7.714843v80c0 4.417969 3.58203175 8 7.99999975 8h32v24c0 4.417969 3.582032 8 8 8h8v128h-8c-4.417968 0-8 3.578126-8 8v24h-16c-4.417968 0-8 3.578126-8 8v24h-8c-4.417968 0-7.99999975 3.578126-7.99999975 8v32c0 4.417969 3.58203175 8 7.99999975 8h184v40c0 4.417969 3.582032 8 8 8h272c4.417969 0 8-3.582031 8-8v-176c0-4.421874-3.582031-8-8-8h-48v-96zm-8-16h-48v-16h48zm-104 112v-96h8c4.417969 0 8-3.582031 8-8v-24h24v24c0 4.417969 3.582032 8 8 8h8v96zm-112 0v-96h8c4.417969 0 8-3.582031 8-8v-24h32v24c0 4.417969 3.582032 8 8 8h8v96zm256 64h-256v-16h256zm-344 0v-24c0-4.421874-3.582031-8-8-8h-8v-128h8c4.417969 0 8-3.582031 8-8v-24h24v24c0 4.417969 3.582032 8 8 8h8v128h-8c-4.417968 0-8 3.578126-8 8v24zm72-32h-16v-128h16zm8-144h-40v-16h48v16zm-40 160h32v16h-32zm152-160h-40v-16h48v16zm-24 16h16v96h-16zm-272-113.90625 224-61.800781 224 61.800781v65.90625h-448zm88 81.90625v16h-48v-16zm-32 32h16v128h-16zm-16 144h48v16h-48zm-24 32h160v16h-160zm-16 48v-16h176v16zm192 48v-96h256v96zm256-144h-256v-16h256zm-56-32h-16v-96h16zm0 0" fill="#1e81ce"/><path d="m448.003906 120.007812v-23.632812c0-3.601562-2.402344-6.753906-5.871094-7.714844l-200-55.199218c-1.394531-.390626-2.867187-.390626-4.257812 0l-200 55.199218c-3.46875.960938-5.871094 4.113282-5.871094 7.714844v23.632812c0 4.417969 3.582032 8 8 8h400c4.417969 0 8-3.582031 8-8zm-16-8h-384v-9.539062l192-52.964844 192 52.964844zm0 0" fill="#1e81ce"/><path d="m216.003906 80.007812c0 13.253907 10.746094 24 24 24s24-10.746093 24-24c0-13.257812-10.746094-24-24-24s-24 10.742188-24 24zm32 0c0 4.417969-3.582031 8-8 8-4.417968 0-8-3.582031-8-8 0-4.421874 3.582032-8 8-8 4.417969 0 8 3.578126 8 8zm0 0" fill="#1e81ce"/><path d="m424.003906 400.007812c-5.925781.019532-11.628906 2.242188-16 6.238282-9.589844-8.714844-24.367187-8.246094-33.382812 1.0625-9.015625 9.304687-9.015625 24.089844 0 33.394531 9.015625 9.308594 23.792968 9.777344 33.382812 1.0625 7.945313 7.222656 19.722656 8.289063 28.835938 2.609375 9.113281-5.683594 13.34375-16.722656 10.359375-27.039062-2.984375-10.316407-12.457031-17.394532-23.195313-17.328126zm-32 32c-4.417968 0-8-3.582031-8-8 0-4.421874 3.582032-8 8-8 4.417969 0 8 3.578126 8 8 0 4.417969-3.582031 8-8 8zm32 0c-4.417968 0-8-3.582031-8-8 0-4.421874 3.582032-8 8-8 4.417969 0 8 3.578126 8 8 0 4.417969-3.582031 8-8 8zm0 0" fill="#1e81ce"/><path d="m248.003906 416.007812h-16c-4.417968 0-8 3.578126-8 8 0 4.417969 3.582032 8 8 8h16c4.417969 0 8-3.582031 8-8 0-4.421874-3.582031-8-8-8zm0 0" fill="#1e81ce"/><path d="m344.003906 416.007812h-64c-4.417968 0-8 3.578126-8 8 0 4.417969 3.582032 8 8 8h64c4.417969 0 8-3.582031 8-8 0-4.421874-3.582031-8-8-8zm0 0" fill="#1e81ce"/></svg>