<svg height="480pt" viewBox="0 -4 480.16859 480" width="480pt" xmlns="http://www.w3.org/2000/svg"><path d="m339.21875 148.972656c-28.378906-49.183594-89.078125-69.34375-141.246094-46.914062-52.167968 22.433594-79.292968 80.355468-63.121094 134.789062 16.171876 54.433594 70.519532 88.152344 126.472657 78.460938 2.273437-.382813 4.609375-.800782 6.871093-1.375 21.179688-5.085938 40.429688-16.203125 55.425782-32 2.285156-2.390625 4.441406-4.902344 6.464844-7.519532 28.449218-35.996093 32.070312-85.703124 9.132812-125.441406zm-52.992188 132.210938c-42.085937 24.300781-95.910156 9.878906-120.210937-32.210938-24.300781-42.085937-9.878906-95.910156 32.210937-120.210937 42.089844-24.300781 95.910157-9.878907 120.210938 32.210937 24.246094 42.097656 9.835938 95.875-32.210938 120.210938zm0 0" fill="#9bc9ff"/><path d="m423.765625 122.03125c-3.132813-32.832031-30.703125-57.90625-63.679687-57.921875-12.335938-.03125-24.40625 3.558594-34.722657 10.320313-9.925781-38.996094-45.039062-66.289063-85.277343-66.289063-40.242188 0-75.355469 27.292969-85.28125 66.289063-10.316407-6.761719-22.386719-10.351563-34.71875-10.320313-32.980469.015625-60.546876 25.089844-63.683594 57.921875-31.367188 7.859375-51.941406 37.886719-47.949219 69.976562 3.988281 32.089844 31.292969 56.164063 63.632813 56.101563h93.496093c-20.917969-37-12.398437-83.664063 20.246094-110.886719s80.078125-27.222656 112.71875 0c32.644531 27.222656 41.164063 73.886719 20.25 110.886719h89.289063c32.335937.0625 59.640624-24.011719 63.628906-56.101563 3.992187-32.089843-16.582032-62.117187-47.949219-69.976562zm0 0" fill="#9bc9ff"/><path d="m359.285156 453.03125c3.179688 5.519531 8.421875 9.546875 14.574219 11.195312 6.152344 1.652344 12.710937.789063 18.226563-2.398437 5.515624-3.179687 9.546874-8.421875 11.195312-14.574219 1.652344-6.152344.789062-12.707031-2.398438-18.222656l-68-117.785156-41.597656 24zm0 0" fill="#9bc9ff"/><g fill="#1e81ce"><path d="m184.085938 200.109375h16v16h-16zm0 0"/><path d="m216.085938 200.109375h16v16h-16zm0 0"/><path d="m248.085938 200.109375h16v16h-16zm0 0"/><path d="m280.085938 200.109375h16v16h-16zm0 0"/><path d="m431.011719 115.828125c-3.792969-22.015625-17.601563-41.019531-37.367188-51.429687-19.769531-10.410157-43.25-11.046876-63.550781-1.722657-13.96875-37.625-49.867188-62.5898435-90-62.5898435-40.136719 0-76.035156 24.9648435-90 62.5898435-20.304688-9.332031-43.792969-8.699219-63.5625 1.714844-19.773438 10.410156-33.582031 29.417969-37.375 51.4375-33.488281 11.207031-53.910156 45.042969-48.214844 79.894531 5.699219 34.851563 35.828125 60.429688 71.144532 60.386719h32c4.417968 0 8-3.582031 8-8s-3.582032-8-8-8h-32c-28.308594.066406-52.214844-21-55.703126-49.09375-3.492187-28.089844 14.527344-54.367187 41.988282-61.234375 3.28125-.832031 5.683594-3.636719 6-7.007812 2.597656-28.792969 26.804687-50.804688 55.714844-50.664063 10.769531-.027344 21.316406 3.105469 30.328124 9.007813 2.164063 1.421874 4.882813 1.710937 7.296876.769531 2.414062-.941407 4.222656-2.992188 4.851562-5.503907 9.035156-35.4375 40.953125-60.234374 77.523438-60.234374 36.570312 0 68.484374 24.796874 77.519531 60.234374.628906 2.511719 2.4375 4.5625 4.851562 5.503907 2.414063.941406 5.132813.652343 7.300781-.769531 9.007813-5.902344 19.554688-9.035157 30.328126-9.007813 28.90625-.140625 53.113281 21.871094 55.710937 50.664063.316406 3.371093 2.71875 6.175781 6 7.007812 27.460937 6.867188 45.480469 33.144531 41.992187 61.234375-3.492187 28.09375-27.398437 49.160156-55.703124 49.09375h-32c-4.417969 0-8 3.582031-8 8s3.582031 8 8 8h32c35.3125.042969 65.445312-25.535156 71.140624-60.386719 5.695313-34.851562-14.726562-68.6875-48.214843-79.894531zm0 0"/><path d="m334.917969 229.804688c13.746093-51.21875-16.640625-103.878907-67.863281-117.609376-51.222657-13.730468-103.875 16.671876-117.589844 67.894532-13.714844 51.226562 16.699218 103.871094 67.929687 117.570312 8.171875 2.199219 16.597657 3.316406 25.058594 3.320313 43.371094-.105469 81.277344-29.292969 92.464844-71.199219zm-113.386719 52.402343c-38.675781-10.429687-63.675781-47.859375-58.5-87.582031 5.179688-39.722656 38.9375-69.492188 78.996094-69.660156 7.054687.007812 14.078125.941406 20.890625 2.777344 42.652343 11.425781 67.964843 55.269531 56.539062 97.921874-11.429687 42.65625-55.269531 67.96875-97.925781 56.542969zm0 0"/><path d="m343.796875 314.171875 6.925781-4c3.828125-2.207031 5.140625-7.101563 2.929688-10.925781l-14.03125-24.304688c34.824218-48.503906 28.667968-115.238281-14.441406-156.554687-43.113282-41.320313-110.046876-44.636719-157.03125-7.78125-46.984376 36.851562-59.707032 102.648437-29.847657 154.359375 21.519531 37.085937 61.125 59.933594 104 60 4.929688-.039063 9.851563-.382813 14.734375-1.03125l13.449219 23.3125c2.210937 3.824218 7.101563 5.136718 10.929687 2.925781l6.925782-4 64 110.859375c4.226562 7.363281 11.226562 12.730469 19.433594 14.910156 2.71875.726563 5.519531 1.097656 8.335937 1.097656 5.597656-.003906 11.097656-1.488281 15.941406-4.296874 15.304688-8.835938 20.550781-28.40625 11.714844-43.710938zm-191.632813-57.207031c-26.203124-45.382813-14.546874-103.167969 27.199219-134.847656 41.746094-31.675782 100.539063-27.347657 137.191407 10.101562 36.65625 37.453125 39.71875 96.324219 7.152343 137.378906-1.839843 2.390625-3.816406 4.679688-5.910156 6.855469-13.941406 14.691406-31.847656 25.023437-51.542969 29.738281-2.066406.511719-4.210937.902344-6.304687 1.253906-42.949219 7.367188-85.949219-12.769531-107.785157-50.480468zm128.207032 75.351562-6.6875-11.527344c.871094-.230468 1.738281-.535156 2.601562-.800781 1.101563-.328125 2.207032-.65625 3.304688-1.015625 1.597656-.511718 3.117187-1.085937 4.664062-1.664062 1.023438-.390625 2.054688-.75 3.070313-1.167969 1.671875-.6875 3.320312-1.429687 4.96875-2.191406.855469-.398438 1.726562-.757813 2.574219-1.175781 2.480468-1.214844 4.921874-2.503907 7.328124-3.886719 2.410157-1.386719 4.945313-2.976563 7.328126-4.585938.800781-.519531 1.488281-1.09375 2.242187-1.597656 1.597656-1.128906 3.199219-2.234375 4.6875-3.425781.910156-.71875 1.765625-1.496094 2.65625-2.238282 1.292969-1.082031 2.605469-2.144531 3.855469-3.273437.910156-.800781 1.757812-1.710937 2.640625-2.566406 1.046875-1.007813 2.117187-1.984375 3.125-3.035157l7.035156 12.175782-6.929687 4-20.800782 12zm115.203125 112.847656c-1.679688 6.25-6.949219 10.871094-13.363281 11.71875-6.414063.84375-12.703126-2.253906-15.941407-7.851562l-64-110.859375 27.703125-16 64 110.851563c2.125 3.671874 2.691406 8.046874 1.566406 12.140624zm0 0"/></g></svg>