<svg height="480pt" viewBox="0 0 480 480" width="480pt" xmlns="http://www.w3.org/2000/svg"><g fill="#9bc9ff"><path d="m8 8h464v64h-464zm0 0"/><path d="m112 296c-7.632812 0-14.203125 5.390625-15.695312 12.875-1.492188 7.488281 2.515624 14.984375 9.566406 17.90625 7.050781 2.921875 15.1875.457031 19.425781-5.890625 4.242187-6.34375 3.410156-14.804687-1.984375-20.203125-2.996094-3.003906-7.066406-4.691406-11.3125-4.6875zm0 0"/><path d="m192 248c0-7.242188-4.863281-13.582031-11.859375-15.457031-6.992187-1.875-14.375 1.183593-17.996094 7.453125-3.621093 6.273437-2.578125 14.195312 2.542969 19.316406 4.578125 4.574219 11.457031 5.941406 17.433594 3.464844 5.980468-2.472656 9.878906-8.308594 9.878906-14.777344zm0 0"/><path d="m224 344c-.039062 7.378906 4.972656 13.828125 12.132812 15.609375 7.160157 1.785156 14.613282-1.5625 18.039063-8.097656 3.425781-6.535157 1.9375-14.566407-3.605469-19.441407-4.6875-4.207031-11.414062-5.257812-17.164062-2.675781-5.746094 2.578125-9.433594 8.304688-9.402344 14.605469zm0 0"/><path d="m304 256c-6.648438-.023438-12.609375 4.082031-14.964844 10.300781-2.351562 6.21875-.601562 13.242188 4.398438 17.628907 6.210937 5.542968 15.644531 5.371093 21.648437-.402344 6-5.769532 6.542969-15.191406 1.246094-21.617188-3.011719-3.722656-7.539063-5.894531-12.328125-5.910156zm0 0"/><path d="m392.734375 188.105469c-8.535156-2.289063-17.304687 2.777343-19.59375 11.308593-2.289063 8.535157 2.773437 17.308594 11.308594 19.597657 8.535156 2.289062 17.308593-2.773438 19.597656-11.308594s-2.773437-17.3125-11.3125-19.597656zm0 0"/></g><path d="m472 0h-464c-4.417969 0-8 3.582031-8 8v464c0 4.417969 3.582031 8 8 8h464c4.417969 0 8-3.582031 8-8v-464c0-4.417969-3.582031-8-8-8zm-456 16h448v48h-448zm448 448h-448v-384h448zm0 0" fill="#1e81ce"/><path d="m32 32h16v16h-16zm0 0" fill="#1e81ce"/><path d="m64 32h16v16h-16zm0 0" fill="#1e81ce"/><path d="m96 32h16v16h-16zm0 0" fill="#1e81ce"/><path d="m112 336c13.253906 0 24-10.746094 24-24-.015625-3.5625-.835938-7.078125-2.398438-10.28125l32.117188-32.117188c4.988281 2.503907 10.730469 3.074219 16.113281 1.597657l39.023438 58.472656c-7.246094 9.546875-6.339844 22.976563 2.125 31.460937 8.464843 8.488282 21.894531 9.425782 31.457031 2.199219 9.566406-7.222656 12.332031-20.398437 6.484375-30.859375l34.070313-38.265625c2.859374 1.179688 5.917968 1.785157 9.007812 1.792969 13.253906 0 24-10.746094 24-24-.027344-2.757812-.53125-5.488281-1.496094-8.070312l49.183594-40.265626c3.808594 2.566407 8.304688 3.925782 12.898438 3.902344 10.863281-.011718 20.371093-7.300781 23.199218-17.789062 2.683594-9.914063-1.234375-20.4375-9.75-26.175782-8.515625-5.742187-19.738281-5.429687-27.921875.777344-8.179687 6.207032-11.507812 16.929688-8.273437 26.675782l-49.457032 40.488281c-3.722656-2.300781-8.007812-3.527344-12.382812-3.542969-13.253906 0-24 10.746094-24 24 .027344 4.042969 1.085938 8.011719 3.078125 11.527344l-34.070313 38.265625c-4.695312-1.984375-9.921874-2.332031-14.839843-.992188l-39.023438-58.472656c7.128907-9.40625 6.359375-22.601563-1.816406-31.117187-8.175781-8.511719-21.324219-9.820313-31.015625-3.082032-9.691406 6.742188-13.042969 19.523438-7.90625 30.152344l-32.125 32.117188c-3.203125-1.5625-6.71875-2.382813-10.28125-2.398438-13.253906 0-24 10.746094-24 24s10.746094 24 24 24zm268.863281-134.503906c.933594-3.496094 4.101563-5.933594 7.722657-5.9375.699218.003906 1.398437.097656 2.078124.273437 4.265626 1.144531 6.800782 5.527344 5.65625 9.796875-1.140624 4.265625-5.523437 6.800782-9.792968 5.660156-4.265625-1.140624-6.800782-5.523437-5.664063-9.792968zm-76.863281 62.503906c4.417969 0 8 3.582031 8 8s-3.582031 8-8 8-8-3.582031-8-8 3.582031-8 8-8zm-56 80c0 4.417969-3.582031 8-8 8s-8-3.582031-8-8 3.582031-8 8-8 8 3.582031 8 8zm-72-104c4.417969 0 8 3.582031 8 8s-3.582031 8-8 8-8-3.582031-8-8 3.582031-8 8-8zm-64 64c4.417969 0 8 3.582031 8 8s-3.582031 8-8 8-8-3.582031-8-8 3.582031-8 8-8zm0 0" fill="#1e81ce"/></svg>